<svg xmlns="http://www.w3.org/2000/svg" xmlns:xlink="http://www.w3.org/1999/xlink" width="93.9" height="94.8" viewBox="0 0 93.900002 94.800003"><defs><linearGradient id="a"><stop offset="0" stop-color="#84c645"/><stop offset="1" stop-color="#4d8e0f" stop-opacity=".941"/></linearGradient><linearGradient xlink:href="#a" id="b" x1="25.564" y1="21.659" x2="75.697" y2="69.094" gradientUnits="userSpaceOnUse"/></defs><ellipse cx="48.304" cy="46.948" rx="38.735" ry="38.58" fill="#fff" stroke="#c8c8c8" stroke-width=".858" stroke-linejoin="round"/><path d="M42.3 81.541c-8.212-1.548-15.893-6.113-21.038-12.504-1.1-1.367-2.206-2.874-2.457-3.35-.42-.793-.411-.907.096-1.405.783-.768 13.728-7.348 14.072-7.12.157.103.2 1.365.402 2.19.752 3.06 3.473 7.291 6.87 7.473l.51.027 17.995.15c15.827.132 18.007.205 18.084.608.134.694-3.203 4.48-5.766 6.542-4.18 3.363-8.415 5.493-13.649 6.866-3.667.963-11.373 1.23-15.118.523zm-.048-20.31c-.978-.124-2.319-1.683-2.745-2.452-.725-1.309-1.142-3.467-.848-4.392.205-.648 11.986-6.678 21.992-11.257l5.196-2.378-.096-4.2c-.093-4.052-.13-4.259-1.022-5.85a7.977 7.977 0 0 0-5.235-3.874c-2.31-.496-16.468-.416-18.933.107-3.784.802-7.224 3.168-8.037 6.539l-.164.678-.153 7.945-.153 7.945-7.95 4.116c-4.372 2.265-8.248 4.123-8.613 4.13-.54.011-.746-.264-1.108-1.485-1.41-4.746-1.432-13.54-.047-18.751 3.148-11.848 12.517-21.472 24.198-24.857 7.701-2.232 16.524-1.755 23.652 1.279C72.541 18.88 80.151 27.88 82.994 39.08c.56 2.21.65 3.37.635 8.27-.015 5.194-.087 5.964-.812 8.659-.437 1.627-1.035 3.45-1.329 4.05l-.534 1.092-19.057.077-19.057.077zm-2.773-15.154c-.28-.094-.373-1.39-.368-5.125.008-6.06.35-7.197 2.458-8.154 1.155-.524 2.001-.584 8.335-.59 6.12-.005 7.189.064 8.1.52 1.296.646 2.397 2.513 1.945 3.295-.168.291-3.813 2.284-8.1 4.429-9.021 4.513-11.848 5.799-12.37 5.625z" fill="url(#b)"/></svg>